<svg width="45" height="45" viewBox="0 0 45 45" fill="none" xmlns="http://www.w3.org/2000/svg">
<g clip-path="url(#clip0_8_322)">
<rect width="45" height="45" rx="22.5" fill="#5F5BFF"/>
<path d="M-6.32064 23.1036C-6.65584 22.6007 -6.7622 22.0591 -6.63972 21.4787C-6.5178 20.8975 -6.20431 20.4688 -5.69925 20.1927C-4.78608 19.6748 -3.88924 19.3796 -3.00872 19.3072C-2.12821 19.2347 -1.08728 19.3579 0.114068 19.6769C1.43351 20.0382 2.51831 20.2605 3.36846 20.3438C4.21835 20.4286 4.99594 20.2359 5.70126 19.7658C6.55178 19.1988 7.06519 18.4408 7.24148 17.4916C7.41721 16.5416 7.16289 15.5533 6.47851 14.5266C6.03157 13.8561 5.51129 13.3785 4.91768 13.0939C4.32268 12.809 3.71997 12.6581 3.10954 12.6414C2.49912 12.6246 1.97828 12.45 1.54702 12.1177C1.11521 11.7845 0.849596 11.3636 0.750181 10.8548C0.636388 10.2346 0.758833 9.67668 1.11752 9.18096C1.47564 8.6844 1.94595 8.42356 2.52844 8.39844C3.86699 8.38383 5.18961 8.68246 6.49633 9.29433C7.80304 9.9062 8.9173 10.9036 9.83912 12.2865C11.3056 14.4866 11.8266 16.5834 11.4021 18.5768C10.9778 20.5689 9.91511 22.1319 8.21406 23.2658C7.17684 23.9572 6.1398 24.3234 5.10294 24.3645C4.06636 24.4042 2.76008 24.2532 1.1841 23.9117C0.0454044 23.6417 -0.829159 23.4984 -1.43959 23.4816C-2.05001 23.4648 -2.65982 23.5838 -3.26901 23.8386C-3.84349 24.1004 -4.41541 24.1639 -4.98475 24.0289C-5.55411 23.894 -5.9994 23.5855 -6.32064 23.1036ZM-13.8096 28.0502C-14.2705 27.3587 -14.4214 26.6047 -14.2623 25.788C-14.1028 24.97 -13.6809 24.3328 -12.9963 23.8765C-12.3117 23.4202 -11.5612 23.2758 -10.7448 23.4434C-9.9298 23.6107 -9.29183 24.0401 -8.83092 24.7315C-8.37002 25.423 -8.21885 26.1775 -8.37743 26.9949C-8.5374 27.8122 -8.95967 28.4489 -9.64424 28.9052C-10.3288 29.3616 -11.079 29.5063 -11.8949 29.3396C-12.7105 29.1714 -13.3487 28.7416 -13.8096 28.0502Z" fill="#C1CEF0" fill-opacity="0.31"/>
<path d="M44.5415 10.5642C44.2982 10.011 43.8989 9.62984 43.3439 9.42065C42.7884 9.21054 42.2584 9.24398 41.7538 9.52099C40.8258 10.0118 40.0943 10.6087 39.5593 11.3118C39.0242 12.0148 38.5678 12.9584 38.1899 14.1426C37.7841 15.449 37.3875 16.4829 37.0002 17.2443C36.6141 18.0061 36.0332 18.5577 35.2573 18.8991C34.3216 19.3107 33.4064 19.3353 32.5116 18.973C31.6164 18.6097 30.9204 17.8634 30.4235 16.7339C30.099 15.9964 29.9766 15.3008 30.0563 14.6473C30.1365 13.9925 30.3338 13.4034 30.6482 12.8799C30.9626 12.3564 31.0959 11.8235 31.0479 11.2812C30.9996 10.7379 30.7878 10.2875 30.4126 9.92986C29.9512 9.50011 29.415 9.30296 28.8042 9.33841C28.1929 9.37293 27.7199 9.62888 27.3852 10.1063C26.6524 11.2265 26.1921 12.5019 26.0044 13.9325C25.8167 15.3631 26.0574 16.839 26.7267 18.3603C27.7914 20.7805 29.2781 22.3482 31.1866 23.0635C33.0939 23.7782 34.9831 23.724 36.8543 22.9008C37.9953 22.3988 38.8622 21.722 39.455 20.8703C40.0464 20.0181 40.6224 18.8359 41.1828 17.3239C41.5683 16.2189 41.9182 15.4047 42.2327 14.8812C42.5471 14.3578 42.9756 13.9079 43.5182 13.5316C44.0482 13.1884 44.4095 12.7406 44.6023 12.1881C44.795 11.6357 44.7748 11.0944 44.5415 10.5642ZM52.7415 6.91549C52.4069 6.15486 51.8526 5.6218 51.0787 5.31632C50.3035 5.01031 49.5394 5.02296 48.7863 5.35426C48.0332 5.68556 47.5076 6.24033 47.2094 7.01858C46.9116 7.79551 46.9301 8.56429 47.2647 9.32493C47.5993 10.0856 48.1538 10.6191 48.9281 10.9255C49.703 11.2306 50.4669 11.2175 51.22 10.8862C51.973 10.5549 52.4989 10.0005 52.7975 9.22322C53.0948 8.44537 53.0762 7.67613 52.7415 6.91549Z" fill="#C1CEF0" fill-opacity="0.31"/>
<path d="M18.5929 48.446C17.9885 48.446 17.4789 48.2341 17.0639 47.8102C16.6479 47.3864 16.4651 46.8878 16.5154 46.3144C16.591 45.2673 16.8428 44.3573 17.2709 43.5845C17.6989 42.8116 18.3788 42.0138 19.3106 41.1911C20.343 40.2936 21.1297 39.5143 21.6706 38.8531C22.2125 38.193 22.4834 37.4391 22.4834 36.5914C22.4834 35.5693 22.1374 34.7216 21.4455 34.0485C20.7525 33.3753 19.789 33.0388 18.5551 33.0388C17.7493 33.0388 17.0634 33.2068 16.4973 33.5429C15.9302 33.8799 15.4704 34.2978 15.1178 34.7964C14.7653 35.295 14.3312 35.6316 13.8155 35.8061C13.2987 35.9806 12.8011 35.9681 12.3227 35.7687C11.7435 35.5194 11.3472 35.108 11.1336 34.5346C10.9191 33.9612 10.9629 33.4252 11.2651 32.9266C11.9953 31.8047 12.9774 30.8698 14.2113 30.1219C15.4452 29.374 16.8931 29 18.5551 29C21.1992 29 23.2328 29.7295 24.6561 31.1884C26.0783 32.6464 26.7895 34.3975 26.7895 36.4418C26.7895 37.6884 26.519 38.7544 25.9781 39.6399C25.4362 40.5245 24.5861 41.5277 23.4277 42.6496C22.5716 43.4474 21.9672 44.0956 21.6147 44.5942C21.2621 45.0928 21.0229 45.6662 20.897 46.3144C20.7963 46.9377 20.5319 47.4488 20.1038 47.8476C19.6757 48.2465 19.1721 48.446 18.5929 48.446ZM18.5551 57.4211C17.7241 57.4211 17.013 57.1284 16.4217 56.543C15.8295 55.9566 15.5333 55.2521 15.5333 54.4294C15.5333 53.6066 15.8295 52.9021 16.4217 52.3157C17.013 51.7304 17.7241 51.4377 18.5551 51.4377C19.3861 51.4377 20.0977 51.7304 20.69 52.3157C21.2813 52.9021 21.5769 53.6066 21.5769 54.4294C21.5769 55.2521 21.2813 55.9566 20.69 56.543C20.0977 57.1284 19.3861 57.4211 18.5551 57.4211Z" fill="#C1CEF0" fill-opacity="0.31"/>
<path d="M18.135 -9.10237C18.7188 -9.25879 19.266 -9.18601 19.7765 -8.88404C20.288 -8.58233 20.5937 -8.14802 20.6934 -7.58111C20.8915 -6.55015 20.8837 -5.60601 20.6703 -4.74869C20.4568 -3.89138 20.0065 -2.94481 19.3195 -1.90898C18.5545 -0.774838 17.9964 0.181546 17.645 0.960177C17.2925 1.7381 17.2259 2.53645 17.4452 3.35521C17.7098 4.34254 18.2634 5.07175 19.106 5.54285C19.9496 6.01368 20.9674 6.08942 22.1592 5.77007C22.9376 5.56151 23.5566 5.22166 24.0164 4.75054C24.477 4.27818 24.813 3.75557 25.0244 3.18271C25.2359 2.60984 25.5682 2.17238 26.0211 1.87033C26.4751 1.56802 26.9589 1.45128 27.4727 1.5201C28.0967 1.61101 28.586 1.90577 28.9407 2.40437C29.2963 2.90271 29.3927 3.43179 29.2299 3.99163C28.8149 5.26429 28.1082 6.42152 27.1099 7.46331C26.1117 8.5051 24.8099 9.24108 23.2045 9.67123C20.6505 10.3556 18.4974 10.1773 16.745 9.13643C14.9939 8.09626 13.8538 6.58885 13.3246 4.61418C13.002 3.41012 12.9873 2.31041 13.2806 1.31505C13.5751 0.320389 14.1366 -0.868669 14.9651 -2.25213C15.5857 -3.24432 16.0017 -4.02685 16.2131 -4.59972C16.4246 -5.17259 16.5073 -5.78838 16.4611 -6.44708C16.3971 -7.07518 16.5202 -7.63728 16.8305 -8.13337C17.1407 -8.62947 17.5756 -8.95247 18.135 -9.10237ZM15.8486 -17.7814C16.6513 -17.9965 17.4139 -17.8978 18.1365 -17.4854C18.8604 -17.0723 19.3288 -16.4684 19.5417 -15.6737C19.7547 -14.8791 19.651 -14.1219 19.2306 -13.4022C18.811 -12.6837 18.1999 -12.217 17.3972 -12.0019C16.5945 -11.7868 15.8314 -11.8854 15.1078 -12.2975C14.3849 -12.7109 13.917 -13.3149 13.7041 -14.1096C13.4912 -14.9042 13.5944 -15.6613 14.0137 -16.3807C14.4343 -17.0994 15.0459 -17.5663 15.8486 -17.7814Z" fill="#C1CEF0" fill-opacity="0.31"/>
<path d="M35.3926 36.1091C35.905 35.7886 36.4495 35.6981 37.0261 35.8374C37.6035 35.9762 38.0229 36.302 38.2842 36.8149C38.7753 37.7427 39.0443 38.6478 39.0911 39.53C39.1379 40.4123 38.9844 41.4492 38.6306 42.6408C38.2311 43.9491 37.9773 45.027 37.8692 45.8744C37.7598 46.7214 37.9297 47.5043 38.3792 48.223C38.9211 49.0897 39.6639 49.6249 40.6075 49.8287C41.552 50.032 42.5473 49.8066 43.5935 49.1524C44.2767 48.7251 44.7692 48.219 45.071 47.6339C45.3731 47.0475 45.5414 46.4494 45.576 45.8397C45.6105 45.23 45.8002 44.7145 46.1449 44.2931C46.4905 43.8712 46.919 43.6179 47.4304 43.5333C48.0536 43.4376 48.6078 43.5763 49.0929 43.9492C49.5788 44.3217 49.8258 44.7994 49.834 45.3823C49.8097 46.7207 49.4727 48.0341 48.823 49.3225C48.1734 50.6108 47.144 51.6956 45.7348 52.5768C43.493 53.9786 41.382 54.4384 39.4017 53.956C37.4228 53.4739 35.8914 52.3662 34.8075 50.6329C34.1466 49.576 33.8107 48.5287 33.7998 47.4911C33.7903 46.4538 33.9792 45.1525 34.3665 43.5871C34.6694 42.4567 34.8382 41.5867 34.8727 40.977C34.9073 40.3674 34.8061 39.7543 34.5691 39.138C34.3241 38.5561 34.2773 37.9826 34.4288 37.4174C34.5802 36.8523 34.9015 36.4161 35.3926 36.1091ZM30.666 28.4793C31.3706 28.0387 32.1287 27.9098 32.9404 28.0927C33.7535 28.2758 34.3781 28.7162 34.8143 29.4137C35.2505 30.1113 35.373 30.8657 35.1817 31.6769C34.9908 32.4867 34.543 33.1119 33.8384 33.5525C33.1338 33.993 32.3753 34.1222 31.5628 33.9399C30.7505 33.7562 30.1263 33.3156 29.6901 32.618C29.2539 31.9205 29.131 31.1664 29.3215 30.3557C29.5133 29.5454 29.9615 28.9199 30.666 28.4793Z" fill="#C1CEF0" fill-opacity="0.31"/>
</g>
<defs>
<clipPath id="clip0_8_322">
<rect width="45" height="45" rx="22.5" fill="white"/>
</clipPath>
</defs>
</svg>
